<svg version="1.0"
    xmlns="http://www.w3.org/2000/svg" width="682.667" height="682.667" viewBox="0 0 512 512">
    <path d="M125 254.9V446h67.5c41.6 0 71.3-.4 77.2-1.1 62.2-6.9 106.1-51.6 120.7-122.9 5-24.6 6-35.4 6-66 0-29.7-.9-41-5.4-63.1-9.9-48.5-32.3-85.7-64.6-107.2-14.7-9.8-26.2-14.6-45-18.8-9.7-2.2-11.7-2.3-83.1-2.6l-73.3-.4v191zm147.1-154.6c28.8 7 49.8 24.2 64.6 53.3 9 17.5 14.4 36.2 17.9 62.4 2.2 15.6 2.5 58.3.6 74.5-7.3 62.5-32.2 102.3-72.7 116.2-13.5 4.6-22.4 5.3-71.7 5.3H165V97.9l50.3.4c41.4.3 51.4.7 56.8 2z"/>
    <path d="M194 253.5v95.7l40.3-.4c45-.5 48.3-.9 63.4-8.3 13-6.4 20.7-15.9 24.3-30 5.2-20.4 0-41-13.1-51.8-4.3-3.4-13.9-8.7-18.7-10.1-2-.7-1.5-1.1 4-3.9 8.6-4.2 17-12.8 19.8-20.4 4.4-11.7 3.7-28.9-1.8-40.1-3.4-6.9-12.5-15.5-20.5-19.3-12.2-5.7-16.5-6.2-58.9-6.6l-38.8-.5v95.7zm77.7-76.2c7.9 2.3 14.1 5.7 18 10 5.4 6 6.7 9.9 6.7 20.2.1 10.9-2.1 16.3-9.1 22.5-9.2 8-18.9 10-51 10H214v-65.2l26.3.5c19.2.3 27.6.9 31.4 2zm-1.5 80.1c8.3 1.5 17.2 5.1 22.5 9.2 4.6 3.5 8.9 11.4 10.3 19.1 3.4 17.7-3.6 33.1-18.4 40.3-9.6 4.8-18.7 5.9-46.3 6H214v-76h24.3c16 .1 26.8.5 31.9 1.4z"/>
</svg>